<svg aria-hidden="true" style="position: absolute; width: 0; height: 0; overflow: hidden;"
    version="1.1" xmlns="http://www.w3.org/2000/svg" xmlns:xlink="http://www.w3.org/1999/xlink">
    <defs>
        <symbol id="Sun" viewBox="0 0 29 29">
<path d="M15.5001 19.9569C17.9616 19.9569 19.9571 17.9614 
19.9571 15.4999C19.9571 13.0383 17.9616 11.0428 15.5001 
11.0428C13.0386 11.0428 11.0431 13.0383 11.0431 
15.4999C11.0431 17.9614 13.0386 19.9569 15.5001 19.9569Z"/>
  <path d="M15.5 1V3.23077V1Z"  />
  <path d="M15.5 1V3.23077"/>
  <path d="M15.5 27.7692V30V27.7692Z"/>
  <path d="M15.5 27.7692V30"/>
  <path d="M30.0001 15.5H27.7693H30.0001Z"/>
   <path d="M30.0001 15.5H27.7693"/>
   <path d="M3.23077 15.5H1H3.23077Z"/>
   <path d="M3.23077 15.5H1"/>
   <path d="M25.7616 5.23822L24.1777 6.82207L25.7616 5.23822Z"/>
    <path d="M25.7616 5.23822L24.1777 6.82207"/>
     <path d="M6.82237 24.1774L5.23853 25.7613L6.82237 24.1774Z"/>
     <path d="M6.82237 24.1774L5.23853 25.7613"/>
    <path d="M25.7616 25.7613L24.1777 24.1774L25.7616 25.7613Z"/>
     <path d="M25.7616 25.7613L24.1777 24.1774"/>
   <path d="M6.82237 6.82207L5.23853 5.23822L6.82237 6.82207Z"/>
     <path d="M6.82237 6.82207L5.23853 5.23822"/>
        </symbol>
        <symbol id="moon" viewBox="0 0 29 29">
            <path
                d="M16.5716 14.5C16.5813 11.9887 17.2431 9.52289 18.4923 7.3442C19.7414 5.16551 21.5349 3.3486 23.6973 2.07142C22.0938 1.40756 20.3783 1.05602 18.643 1.03571C15.072 1.03571 11.6473 2.45426 9.12232 4.97931C6.59727 7.50434 5.17871 10.929 5.17871 14.5C5.17871 18.0709 6.59727 21.4956 9.12232 24.0207C11.6473 26.5458 15.072 27.9643 18.643 27.9643C20.3993 27.9518 22.1367 27.6001 23.7594 26.9286C21.5855 25.6592 19.7796 23.8457 18.5192 21.6663C17.2589 19.4871 16.5877 17.0174 16.5716 14.5Z" />
        </symbol>
        <symbol id="facebook" viewBox="0 0 32 32">
            <path
                d="M21.1816 5.31333H24.0827V0.225333C23.5822 0.156 21.8608 0 19.8562 0C15.6733 0 12.808 2.64933 12.808 7.51867V12H8.1922V17.688H12.808V32H18.4672V17.6893H22.8963L23.5994 12.0013H18.4659V8.08267C18.4672 6.43867 18.9068 5.31333 21.1816 5.31333Z"
               />
        </symbol>
        <symbol id="youtube" viewBox="0 0 32 32">
            <path
                d="M31.0752 7.90543L31.1149 8.16677C30.731 6.79477 29.6942 5.7361 28.3767 5.35077L28.3489 5.3441C25.8715 4.66677 15.9024 4.66677 15.9024 4.66677C15.9024 4.66677 5.95845 4.65343 3.45591 5.3441C2.11328 5.7361 1.07519 6.79477 0.697822 8.13877L0.691201 8.16677C-0.234342 13.0348 -0.240962 18.8841 0.732248 24.0961L0.691201 23.8321C1.07519 25.2041 2.11196 26.2628 3.42943 26.6481L3.45724 26.6548C5.93197 27.3334 15.9037 27.3334 15.9037 27.3334C15.9037 27.3334 25.8464 27.3334 28.3502 26.6548C29.6942 26.2628 30.7323 25.2041 31.1096 23.8601L31.1163 23.8321C31.5373 21.5681 31.7783 18.9628 31.7783 16.3014C31.7783 16.2041 31.7783 16.1054 31.777 16.0068C31.7783 15.9161 31.7783 15.8081 31.7783 15.7001C31.7783 13.0374 31.5373 10.4321 31.0752 7.90543ZM12.7219 20.8681V11.1441L21.0187 16.0134L12.7219 20.8681Z"
               />
        </symbol>
        <symbol id="telegram" viewBox="0 0 32 32">
            <path
                d="M12.469 20.2413L11.9433 27.6867C12.6954 27.6867 13.0211 27.3613 13.4117 26.9707L16.9378 23.5773L24.2442 28.9653C25.5842 29.7173 26.5282 29.3213 26.8897 27.724L31.6856 5.09468L31.6869 5.09335C32.1119 3.09868 30.9706 2.31868 29.665 2.80801L1.47503 13.676C-0.448877 14.428 -0.419747 15.508 1.14798 15.9973L8.35503 18.2547L25.0956 7.70668C25.8834 7.18135 26.5997 7.47201 26.0105 7.99735L12.469 20.2413Z"
                />
        </symbol>
        <symbol id="instagram" viewBox="0 0 32 32">
            <path
                d="M15.8944 7.78406C11.3885 7.78406 7.74066 11.4614 7.74066 15.9947C7.74066 20.5321 11.3925 24.2054 15.8944 24.2054C20.4003 24.2054 24.0482 20.5281 24.0482 15.9947C24.0482 11.4574 20.3964 7.78406 15.8944 7.78406ZM15.8944 21.3241C12.9695 21.3241 10.602 18.9387 10.602 15.9947C10.602 13.0507 12.9708 10.6654 15.8944 10.6654C18.818 10.6654 21.1868 13.0507 21.1868 15.9947C21.1882 18.9387 18.8194 21.3241 15.8944 21.3241Z"
                />
            <path
                d="M22.4408 0.101248C19.5172 -0.0360854 12.2757 -0.0294187 9.34943 0.101248C6.77804 0.222581 4.50987 0.847914 2.68129 2.68925C-0.374723 5.76658 0.0158849 9.91325 0.0158849 15.9946C0.0158849 22.2186 -0.32838 26.2692 2.68129 29.2999C5.74922 32.3879 9.92674 31.9839 15.8944 31.9839C22.0171 31.9839 24.1303 31.9879 26.2952 31.1439C29.2387 29.9932 31.4605 27.3439 31.6777 22.5852C31.8154 19.6399 31.8074 12.3492 31.6777 9.40258C31.4155 3.78525 28.4217 0.378581 22.4408 0.101248ZM27.0685 27.2639C25.0651 29.2812 22.2858 29.1012 15.856 29.1012C9.23556 29.1012 6.58075 29.1999 4.6436 27.2439C2.4125 25.0079 2.81635 21.4172 2.81635 15.9732C2.81635 8.60658 2.06558 3.30125 9.40769 2.92258C11.0946 2.86258 11.5911 2.84258 15.8375 2.84258L15.8971 2.88258C22.9532 2.88258 28.4892 2.13858 28.8216 9.53058C28.8971 11.2172 28.9143 11.7239 28.9143 15.9932C28.9129 22.5826 29.0374 25.2719 27.0685 27.2639Z"
                />
            <path
                d="M24.3713 9.37859C25.4236 9.37859 26.2767 8.51957 26.2767 7.45992C26.2767 6.40027 25.4236 5.54126 24.3713 5.54126C23.319 5.54126 22.4659 6.40027 22.4659 7.45992C22.4659 8.51957 23.319 9.37859 24.3713 9.37859Z"
              />
        </symbol>
    </defs>
</svg>